<?xml version="1.0" encoding="UTF-8" standalone="no"?>
<!-- Created with Inkscape (http://www.inkscape.org/) -->

<svg
   xmlns:dc="http://purl.org/dc/elements/1.1/"
   xmlns:cc="http://creativecommons.org/ns#"
   xmlns:rdf="http://www.w3.org/1999/02/22-rdf-syntax-ns#"
   xmlns:svg="http://www.w3.org/2000/svg"
   xmlns="http://www.w3.org/2000/svg"
   xmlns:sodipodi="http://sodipodi.sourceforge.net/DTD/sodipodi-0.dtd"
   xmlns:inkscape="http://www.inkscape.org/namespaces/inkscape"
   width="800"
   height="800"
   viewBox="0 0 211.664 211.664"
   version="1.1"
   id="svg8"
   inkscape:version="0.92.3 (2405546, 2018-03-11)"
   sodipodi:docname="veins.svg"
   inkscape:export-filename="T:\Università\Processing\Bozze per workshop\occhi6\data\veins.png"
   inkscape:export-xdpi="138"
   inkscape:export-ydpi="138">
  <defs
     id="defs2">
    <clipPath
       clipPathUnits="userSpaceOnUse"
       id="clipPath829">
      <rect
         style="opacity:1;fill:#ff0000;fill-opacity:1;fill-rule:nonzero;stroke:#ff0101;stroke-width:0.40903577;stroke-linecap:round;stroke-linejoin:round;stroke-miterlimit:4;stroke-dasharray:none;stroke-opacity:1;paint-order:fill markers stroke"
         id="rect831"
         width="211.664"
         height="211.664"
         x="0"
         y="-1.6666605" />
    </clipPath>
  </defs>
  <sodipodi:namedview
     id="base"
     pagecolor="#ffffff"
     bordercolor="#666666"
     borderopacity="1.0"
     inkscape:pageopacity="0.0"
     inkscape:pageshadow="2"
     inkscape:zoom="0.64"
     inkscape:cx="106.0239"
     inkscape:cy="147.47381"
     inkscape:document-units="px"
     inkscape:current-layer="layer3"
     showgrid="false"
     units="px"
     inkscape:pagecheckerboard="true"
     inkscape:snap-page="true"
     inkscape:object-paths="false"
     inkscape:window-width="1600"
     inkscape:window-height="1251"
     inkscape:window-x="2391"
     inkscape:window-y="-9"
     inkscape:window-maximized="1" />
  <metadata
     id="metadata5">
    <rdf:RDF>
      <cc:Work
         rdf:about="">
        <dc:format>image/svg+xml</dc:format>
        <dc:type
           rdf:resource="http://purl.org/dc/dcmitype/StillImage" />
        <dc:title />
      </cc:Work>
    </rdf:RDF>
  </metadata>
  <g
     inkscape:groupmode="layer"
     id="layer3"
     inkscape:label="vessels"
     style="display:inline;opacity:1"
     transform="translate(0,1.6666606)">
    <g
       id="g981"
       style="fill:#ff0000;stroke:#ff0101;stroke-width:0.29104167;stroke-linecap:round;stroke-linejoin:round;stroke-miterlimit:4;stroke-dasharray:none;stroke-opacity:1"
       clip-path="url(#clipPath829)">
      <path
         style="display:inline;opacity:1;fill:#ff0000;stroke:#ff0101;stroke-width:0.292092;stroke-linecap:round;stroke-linejoin:round;stroke-miterlimit:4;stroke-dasharray:none;stroke-opacity:1"
         d="m 35.570246,-1.5211398 c 0,0 9.652638,13.8376848 17.983172,22.0564668 1.213284,1.197008 8.267339,5.809443 9.147131,7.599218 1.55775,3.168941 1.477736,4.953339 1.852577,12.148858 0.11478,2.203433 2.539847,9.555754 4.245166,9.607803 -0.866911,-0.54844 -1.745099,-2.793426 -2.3528,-5.576576 -0.607689,-2.78315 -0.945176,-6.10453 -0.730695,-8.805201 0.394701,-4.969824 -0.998893,-8.259724 -0.998893,-8.259724 0,0 2.608486,-0.183409 5.684338,1.145086 2.854919,1.233077 9.093768,4.778509 12.505538,1.613533 4.340821,-0.2082 5.89104,14.677939 5.89104,14.677939 0,0 1.224341,-9.432283 -1.240219,-14.886136 6.42327,-1.151206 11.952791,2.023673 15.876349,5.48653 3.92356,3.462856 6.2414,7.213531 6.2414,7.213531 0.0408,-0.03709 -0.91488,-6.259033 -6.79019,-10.798697 C 97.008842,27.161826 86.213729,24.304634 82.905778,27.666101 78.875258,31.761817 66.435194,26.08488 60.788543,21.992711 53.111987,16.429455 44.665183,-1.5211398 44.665183,-1.5211398 Z m 78.887214,0 c 0,0 2.70409,7.9012171 3.58062,11.9619998 0.93337,4.324091 1.9645,7.112566 2.08305,10.967857 0.094,3.056279 -7.27158,6.404261 -3.03285,10.894468 4.23873,4.490203 0.87694,10.967855 0.87694,10.967855 0,0 4.26222,-5.786865 2.00967,-9.053998 -0.91351,-1.32498 1.1e-4,6.1e-5 -2.63082,-4.195704 -0.81873,-3.023109 3.02386,-4.093943 3.98317,-6.919453 1.89194,-5.572425 -1.72308,-13.8141196 -2.40654,-17.7759219 -0.73638,-4.2685179 -1.90528,-6.8471029 -1.90528,-6.8471029 z m 51.80239,0 c 0,0 -6.50715,20.4132168 -15.19268,24.2945928 -13.89503,6.209385 -12.09265,12.700061 -12.09265,12.700061 0,0 -2.56708,-1.032421 -8.14617,3.499283 -1.75753,1.427585 -2.47689,3.824357 -2.39569,4.828626 0,0 2.48953,-5.552368 8.60402,-6.089782 2.22827,1.546022 1.78281,9.655169 1.78281,9.655169 0,0 -2.50624,0.72916 -5.1159,4.893167 2.76469,-2.680579 7.17862,-3.521021 8.34564,-2.082499 0.66245,0.816572 0.37981,3.432877 -0.95032,5.752504 -1.00434,1.751478 -0.52273,2.464688 -0.88417,5.620819 1.59769,-4.430058 2.94604,-5.98567 3.28193,-7.677293 1.74481,-8.787218 -4.12471,-3.947437 -3.15274,-12.960827 0.59977,-5.561836 -1.315,-7.776909 6.47239,-11.85582 2.04628,-1.140953 10.22753,-10.02649 13.1272,-13.107089 0,0 3.33242,2.809027 1.13997,6.489523 -2.19244,3.680498 2.63081,8.980609 2.63081,8.980609 0,0 -2.55791,-4.490521 0.36535,-10.158488 2.92326,-5.667964 -0.77565,-9.204941 -0.77565,-9.204941 2.84307,-3.5369885 5.43042,-6.9316449 7.30695,-9.4417671 1.87653,-2.51012181 3.04215,-4.1358477 3.04215,-4.1358477 z m 35.43408,0 -21.02791,27.7636878 c -4.68437,6.18487 -12.16565,16.033103 -18.07153,20.173319 -5.90588,4.14021 -5.15289,4.908169 -5.751,6.016393 -0.84916,1.573378 -0.36502,5.281358 -3.62506,7.184904 -1.63002,0.951772 -3.10643,2.403402 -4.1754,3.616914 -1.06896,1.21351 -1.73062,2.189201 -1.73062,2.189201 0,0 2.74975,-2.210076 4.56297,-3.434745 1.81322,-1.224666 2.68963,-1.464038 4.11081,-2.937148 2.1221,-2.199657 0.66238,-7.748473 5.80732,-10.036692 7.00687,-3.116314 17.00481,-14.360585 25.25861,-21.826407 C 197.374,17.851807 217.3796,-1.5211398 217.3796,-1.5211398 Z M -12.71457,8.5873805 c -0.140145,0.00141 -0.282761,0.00564 -0.428392,0.013013 5.87405,1.05269 7.423619,10.7991535 5.554112,15.3108605 -2.374933,5.731467 -11.254468,8.98061 -11.254468,8.98061 0,0 -6.611297,-17.390178 -13.300829,-19.065187 3.80926,1.5652 7.533394,13.622448 7.746716,21.126345 0.157479,5.539536 -0.584421,12.366588 -4.823417,15.899537 -3.473723,2.895143 -13.447072,1.472482 -13.447072,1.472482 v 5.741572 c 9.208271,-0.962704 13.446828,-7.213995 24.409055,-1.840468 0,0 17.7147489,10.943623 19.8781243,17.004028 C 1.113811,64.935927 -15.481809,55.122174 -15.481809,55.122174 c 0,0 1.681318,-1.636349 9.573974,0.73598 6.9588718,2.091659 15.1865557,3.016955 22.143588,2.797136 4.59536,-0.145199 12.40441,-5.230266 16.808582,-3.901105 1.902232,0.574085 10.37261,3.145258 14.177765,0.883278 6.531205,-3.882482 17.10107,-0.515289 17.10107,-0.515289 0,0 -7.938102,-6.883332 -18.197111,-1.619257 -3.87332,1.987469 -13.049264,-3.124831 -16.296993,-1.177877 -8.836358,5.297229 -30.8406208,-0.73598 -30.8406208,-0.73598 0,0 6.2393599,-9.125081 20.3897108,-11.115158 -15.5878378,1.397455 -17.5836997,7.464448 -24.774402,11.335846 -5.782688,3.11334 -19.586155,-1.840468 -19.586155,-1.840468 0,0 2.174786,-9.142418 5.48125,-12.955102 C -16.394855,33.432307 -7.629116,25.808511 -2.9116732,25.604422 3.3998193,25.331371 7.4278831,24.584188 15.212572,25.82511 4.8051597,21.570891 4.3546832,25.784116 -0.2074803,23.249185 -5.799511,20.142021 -3.8854096,8.4990272 -12.71457,8.5873805 Z M 40.060354,65.059452 c -4.165646,9.274855 -4.017211,6.566995 -6.431051,25.690037 -3.654075,3.091618 -0.146241,18.991281 -0.146241,18.991281 0,0 -11.058264,5.06617 -16.398277,9.5188 -7.010333,5.84539 -8.6934921,6.34492 -26.573753,10.06115 -24.377936,5.0667 -33.178952,-7.36083 -33.178952,-7.36083 v 0.14731 9.05399 c 0,0 4.018742,-1.15157 6.065703,-1.03057 8.018838,0.474 15.14839,5.90394 23.130597,6.8091 8.863881,1.00512 24.73801,4.04819 26.711211,-1.61978 -10.8891463,3.75411 -22.216967,-1.21431 -22.216967,-1.21431 0,0 16.715913,-4.7648 24.189948,-9.05401 4.409704,-2.53064 11.839439,-9.64319 11.839439,-9.64319 0,0 1.791415,1.99795 2.481988,3.76058 1.828023,4.66589 2.013845,5.05901 4.00849,7.11984 2.832697,2.92669 3.22432,2.35166 5.988705,3.48314 2.538994,1.03925 7.657538,0.6191 10.102618,1.02121 4.578433,0.75297 4.96966,2.06116 4.96966,2.06116 0,0 0.09938,-2.46202 -6.796401,-3.38634 -7.238626,-0.97029 -4.823414,-0.36778 -10.523773,-2.87052 -5.700354,-2.50273 -7.600472,-12.58763 -7.600472,-12.58763 0,0 11.309368,-4.05188 18.27049,-0.99363 3.806991,1.67252 7.746274,6.95637 15.492916,2.09812 -8.258209,1.76663 -13.190761,-3.93807 -13.190761,-3.93807 0,0 -3.86e-4,-4.82191 9.280969,-12.109301 -6.50426,0.956931 -11.510261,11.483141 -11.510261,11.483141 0,0 -6.248594,-2.28178 -12.825931,-0.73597 -0.365406,-2.09789 -2.195118,-10.815442 -1.078474,-16.155627 0.30573,-1.462109 5.872845,-10.063379 12.906543,-12.122313 3.29885,-0.965653 3.926328,-3.750162 3.926328,-3.750162 0,0 -1.459103,1.529484 -3.243691,2.225633 -1.784585,0.696152 -3.894517,0.558753 -5.092649,1.389199 -2.259054,1.565791 -6.044515,5.621339 -6.044515,5.621339 -1.890323,0.658483 -0.09443,-10.479624 3.486564,-21.962777 z m 122.444216,0.145217 c 23.97786,4.378156 21.42695,12.873077 21.23513,13.638514 -0.30277,1.208154 -8.6067,3.528557 -9.7259,2.027324 -3.88734,-5.214267 -7.77945,-6.682484 -11.36867,-5.270523 -2.95393,1.162037 -9.0784,1.945084 -9.0784,1.945084 0,0 0.61221,0.08625 1.65724,0.267536 1.04504,0.181289 3.97545,0.921195 8.3291,-0.64177 1.66857,-0.59902 5.38064,0.49478 6.83929,2.073128 1.92269,2.080471 -0.0516,1.997595 -4.54953,7.399868 -3.867,4.644481 -8.41799,6.800779 -8.41799,6.800779 0,0 3.36462,0.740973 11.67614,-7.327519 1.94147,-1.884689 9.9135,-4.933151 17.79611,-4.20247 8.33294,0.772425 41.07208,-1.836346 48.64552,-1.262719 12.39883,0.775114 16.18436,2.981567 18.78931,4.092127 v -2.474432 -2.47495 -2.474431 l -0.0667,-3.013142 c 0,0 -16.60615,-0.484987 -33.40631,2.379701 -11.08832,1.890734 -33.40633,2.379181 -33.40633,2.379181 0,0 -2.89374,-13.75176 -24.94803,-13.861286 z m -5.13037,37.704091 c -1.52769,-0.007 -2.53005,0.21548 -2.53005,0.21548 0,0 12.40369,2.56011 13.63104,11.03709 1.57439,10.87389 -4.60612,7.93014 -7.08268,6.05699 -10.60161,-8.0186 -16.97188,-5.24918 -16.97188,-5.24918 0,0 9.6887,0.0808 16.57087,7.26817 2.61241,2.72827 10.48032,-0.70063 13.76437,-0.40337 6.78352,0.61399 10.74459,12.01796 16.03602,14.94026 20.25199,11.18458 63.54003,8.6147 63.54003,8.6147 v -7.80689 c 0,0 -7.73209,4.57079 -25.58777,3.6341 -10.09643,-0.52965 -28.40511,-1.57457 -36.8097,-10.16631 -18.66979,-19.08549 -19.23419,-11.24946 -20.51942,-16.08066 -2.8019,-10.53245 -10.13674,-12.04349 -14.04083,-12.06038 z m -30.37813,30.2808 c 0,0 0.33306,4.07977 2.74037,10.75497 0.51972,0.90419 0.47232,2.42707 0.47232,2.42707 0,0 -6.42686,1.0768 -10.45866,-4.28679 -2.49501,-2.60426 -4.6131,-3.13703 -4.6131,-3.13703 0,0 5.79529,10.58561 16.83804,10.23865 5.46153,9.08254 7.12105,7.07807 9.80961,11.50917 3.63322,5.98802 4.48703,13.66469 5.52776,20.74846 1.38395,9.41993 0.89761,28.55328 0.89761,28.55328 h 6.51993 c 0,0 -5.45264,-40.57164 -10.01632,-49.49224 2.58868,-2.52897 3.07132,-9.08929 3.02407,-16.75107 -2.36685,14.28567 -3.95896,14.98734 -4.72472,15.03812 -1.62723,0.10791 -4.76219,-4.40156 -8.09294,-8.27846 -2.67439,-3.11291 -7.92397,-17.32413 -7.92397,-17.32413 z m -57.893924,0.76252 c -0.660341,10.41984 3.789283,10.96769 3.906172,15.60391 0.23609,9.36445 1.571444,9.90081 3.483464,12.08691 -0.243871,8.92142 0.351196,8.7039 -2.532116,15.87508 -4.390677,10.92022 -2.68714,32.47936 -2.68714,32.47936 h 6.356121 c 0,0 -3.100544,-16.49961 -2.842168,-21.39231 0.258381,-4.89271 1.291862,-5.15331 3.410603,-14.05387 2.11873,-8.90057 0.930162,-15.19844 0.930162,-15.19844 0,0 3.438141,-8.04304 11.867861,-7.98281 0.97539,0.0602 3.76338,0.88086 7.268201,-4.00417 1.36649,-1.90463 4.677694,-3.15003 4.677694,-3.15003 0,0 -3.001803,-1.26519 -7.054265,3.22186 -2.727959,3.0205 -5.840343,2.80612 -6.731803,1.97944 -1.30512,-3.81528 2.581694,-10.31198 5.372214,-15.20468 -9.043379,11.86741 -6.954273,13.09191 -6.925072,15.4592 -8.296448,3.91528 -8.773004,6.98636 -11.316996,9.10865 -0.506879,-1.98706 -1.959688,-2.10657 -2.003986,-9.30279 -0.107418,-4.67076 -4.376976,-8.93128 -5.178946,-15.52531 z m -16.840622,7.85998 c -4.104565,3.8887 -5.217925,7.17776 -5.167578,12.80416 0.04257,4.7571 -15.348466,19.42872 -18.344903,22.9538 -5.264679,6.19351 -6.097741,6.61081 -6.097741,6.61081 0,0 -4.602755,-15.04413 -2.273734,-23.31867 -6.867833,7.65691 0.807183,15.91832 -0.413407,23.73506 -1.364791,8.74018 -7.648534,25.40012 -7.648534,25.40012 h 8.268644 c 0,0 0.251142,-10.15559 2.68714,-14.36564 4.326711,-7.4777 16.6894,-8.31537 19.688472,-16.76044 -5.310467,5.00778 -18.603281,12.49238 -18.603281,12.49238 0,0 15.760655,-25.18277 24.132593,-32.79166 4.220028,1.15662 9.829086,1.34135 13.952975,7.91151 1.070112,-4.2172 -2.976565,-6.01957 -7.364314,-8.37995 0.23592,-2.40537 3.334052,-1.04193 5.814042,-5.36109 -2.394711,2.37287 -9.116154,4.9132 -11.989297,3.48731 -1.310937,-6.22981 3.394842,-11.36159 3.358923,-14.4177 z m 114.658226,3.56019 c -0.003,0.0216 0.0374,0.11831 0.108,0.26857 -0.003,-0.007 -0.108,-0.26857 -0.108,-0.26857 z m 0.108,0.26857 c 0.19525,0.48773 7.04565,17.59793 9.22413,22.70813 6.50299,15.25451 10.50318,17.39478 15.99469,25.93883 4.39259,6.83427 7.57618,15.70956 7.57618,15.70956 h 7.62218 c 0,0 -18.34673,-26.52767 -26.77942,-40.27168 -4.55426,-7.42279 -12.63119,-21.94302 -13.63776,-24.08484 z m -57.28002,14.05543 c 0,0 0.63495,4.59433 4.01624,8.61367 3.04596,3.62073 -0.93223,10.86096 -0.93223,14.00181 0,3.14085 4.081,7.68828 5.42079,13.12374 1.18334,4.80073 2.83494,14.56187 2.83494,14.56187 h 5.86313 c -0.18899,-1.14213 -1.88126,-5.96491 -4.8043,-12.37318 -5.49633,-12.04975 -8.11736,-15.04735 -6.63413,-18.89239 2.23349,-5.78994 2.33878,-8.92287 -0.89761,-12.27794 -3.23638,-3.35506 -4.86683,-6.75758 -4.86683,-6.75758 z"
         id="path830"
         inkscape:connector-curvature="0" />
    </g>
  </g>
</svg>
